<?xml version="1.0" standalone="no"?>
<!DOCTYPE svg PUBLIC "-//W3C//DTD SVG 20010904//EN"
 "http://www.w3.org/TR/2001/REC-SVG-20010904/DTD/svg10.dtd">
<svg version="1.0" xmlns="http://www.w3.org/2000/svg"
 width="486.000000pt" height="486.000000pt" viewBox="0 0 486.000000 486.000000"
 preserveAspectRatio="xMidYMid meet">
<metadata>
Created by potrace 1.14, written by Peter Selinger 2001-2017
</metadata>
<g transform="translate(0.000000,486.000000) scale(0.100000,-0.100000)"
fill="#000000" stroke="none">
<path d="M1949 4833 c-37 -23 -58 -63 -80 -150 -32 -128 -88 -221 -166 -274
-30 -21 -44 -26 -47 -17 -2 7 -9 37 -16 66 -49 213 -282 347 -455 262 -34 -17
-41 -18 -55 -5 -23 20 -63 19 -91 -3 -31 -26 -31 -88 -1 -113 19 -15 21 -21
12 -45 -6 -15 -12 -82 -12 -148 -2 -107 1 -127 21 -174 37 -82 120 -142 215
-155 44 -6 51 -11 34 -25 -12 -10 -50 -16 -168 -27 -25 -2 -69 -7 -98 -11
l-54 -7 7 -74 c4 -41 8 -84 10 -96 2 -12 6 -62 10 -111 4 -50 9 -99 11 -110 3
-12 6 -88 8 -171 2 -82 8 -168 14 -190 6 -22 14 -76 17 -120 3 -44 8 -102 10
-130 3 -27 7 -89 10 -136 l6 -86 -34 0 c-128 0 -230 -95 -230 -215 0 -26 2
-50 5 -53 3 -3 18 -1 34 5 34 13 114 29 114 23 0 -2 -9 -21 -20 -42 -32 -65
-42 -167 -21 -220 10 -23 10 -37 -3 -75 -9 -25 -19 -63 -22 -84 l-6 -39 63
-12 c111 -22 314 -92 456 -157 29 -13 86 -40 127 -59 79 -38 107 -43 124 -22
6 7 38 85 70 172 58 158 59 160 90 163 18 2 32 1 32 -2 0 -3 -16 -34 -35 -68
-78 -144 -111 -305 -109 -543 2 -168 34 -301 94 -386 21 -29 99 -77 101 -62 2
21 32 -97 32 -127 0 -74 -10 -197 -17 -208 -4 -7 -12 -9 -18 -6 -7 5 -9 1 -5
-9 3 -9 0 -23 -8 -31 -11 -11 -12 -16 -2 -19 7 -3 5 -6 -5 -6 -22 -1 -32 -17
-17 -27 8 -4 9 -3 5 4 -4 7 -2 12 3 12 6 0 11 -3 12 -7 4 -44 27 -93 55 -118
6 -5 17 -26 24 -45 7 -19 20 -43 28 -52 8 -10 12 -24 9 -32 -4 -11 -1 -13 10
-9 11 4 14 2 9 -5 -4 -7 -1 -12 9 -12 8 0 19 -9 23 -21 5 -11 12 -20 17 -20 6
0 20 -8 32 -19 12 -10 32 -20 45 -22 12 -2 22 -8 21 -14 -1 -7 8 -9 24 -6 20
4 24 2 18 -9 -8 -12 -6 -12 8 0 15 12 17 11 17 -5 0 -15 2 -16 9 -5 5 8 26 15
47 16 43 2 95 23 107 42 4 7 13 13 19 13 6 0 5 -7 -3 -18 -13 -15 -12 -16 3
-4 9 8 14 20 11 28 -3 8 1 22 9 32 8 9 18 25 21 35 4 11 12 15 18 11 8 -4 9
-3 5 4 -8 13 27 35 40 24 5 -4 4 0 -2 8 -14 21 -3 64 18 68 10 1 23 -6 30 -18
7 -11 19 -20 26 -20 7 0 11 -4 7 -9 -3 -5 5 -11 17 -13 17 -2 22 -9 20 -23 -2
-15 -1 -17 7 -6 8 12 14 12 40 2 45 -19 211 -17 211 2 0 5 4 6 9 3 5 -3 12 1
15 10 4 11 14 15 29 12 15 -3 24 0 24 8 0 7 -6 10 -14 7 -28 -11 -11 7 22 23
20 9 33 19 31 22 -3 3 -12 -1 -21 -8 -20 -17 -30 -7 -12 11 7 8 12 20 9 27 -2
7 1 26 7 42 7 22 7 29 -2 27 -7 -1 -11 6 -11 16 1 9 -2 17 -7 17 -5 0 -9 6 -9
14 0 7 -11 29 -24 49 -13 19 -22 38 -18 41 3 3 -3 6 -13 6 -15 0 -16 2 -4 17
12 15 12 16 -1 8 -8 -4 4 10 28 32 45 43 49 52 30 71 -9 9 -8 16 8 31 41 42
47 53 38 68 -6 10 -2 46 13 107 13 50 23 98 23 107 0 9 9 37 20 63 l21 46 37
-20 c68 -37 138 -20 185 42 47 63 61 161 45 303 -9 74 -35 190 -49 215 -8 14
-59 141 -59 146 0 1 39 9 88 18 48 9 98 18 112 21 14 3 52 10 85 16 33 6 70
13 81 15 12 2 82 18 155 35 74 17 145 33 159 35 14 3 29 9 33 13 17 17 -156
214 -217 248 -19 10 -16 16 37 82 49 61 136 203 137 223 0 3 -51 23 -112 44
-62 20 -115 41 -118 45 -3 5 -6 36 -5 70 l0 61 45 25 c79 45 130 86 130 105 0
24 -91 145 -177 236 -11 12 -14 46 -16 167 0 11 35 73 77 138 103 157 100 175
-23 154 -59 -10 -42 -24 32 -26 15 -1 27 -5 27 -11 0 -11 -99 -178 -110 -185
-4 -2 -7 15 -7 38 0 71 -13 471 -16 473 -1 2 -31 4 -66 5 l-63 2 6 51 c8 65
14 97 20 104 3 2 48 4 99 3 l95 -2 7 58 c13 98 14 106 21 183 13 142 12 221
-4 236 -45 46 -158 63 -327 50 -85 -6 -88 -9 -100 -127 -3 -31 -7 -66 -10 -77
-7 -37 -19 -176 -20 -222 l0 -45 50 -17 c28 -9 63 -17 78 -17 19 -1 27 -5 24
-13 -3 -7 -13 -44 -23 -81 l-19 -68 -55 5 c-68 8 -126 14 -257 30 -56 6 -100
9 -98 6 2 -4 -2 -7 -10 -7 -8 0 -12 4 -9 9 3 5 -6 7 -20 4 -14 -3 -26 0 -26 5
0 6 -4 8 -8 5 -5 -3 -49 6 -98 19 -49 13 -102 26 -117 29 l-28 7 39 74 c22 42
37 77 33 79 -12 8 -377 -11 -392 -20 -12 -7 -25 21 -28 60 -4 53 -46 178 -84
251 -37 70 -126 164 -179 188 -45 21 -105 21 -139 0z m158 -116 c47 -49 105
-158 122 -230 15 -63 23 -157 14 -158 -8 -2 -105 -7 -150 -8 -15 -1 -25 -9
-28 -24 -6 -21 -12 -23 -93 -25 -48 -1 -96 -4 -107 -7 -11 -2 -33 -4 -50 -5
l-30 -1 35 -32 c20 -17 57 -50 83 -72 26 -22 47 -43 47 -46 0 -15 -62 -28
-155 -34 -212 -13 -374 -25 -419 -31 -64 -9 -38 18 35 36 103 25 190 102 223
196 7 21 19 41 27 45 8 4 36 18 62 30 107 51 179 161 227 346 15 59 35 76 79
69 25 -4 49 -19 78 -49z m1593 -1447 c0 -5 19 -31 43 -58 91 -104 106 -126 96
-138 -15 -18 -139 -98 -144 -93 -8 8 -11 299 -3 299 4 0 8 -4 8 -10z m-1236
-2587 c-20 -20 -23 -15 -11 17 9 25 13 27 18 13 3 -10 0 -23 -7 -30z m66 -98
c25 -26 25 -34 3 -30 -10 1 -17 10 -17 18 1 9 -7 19 -17 22 -27 9 -52 58 -36
74 8 8 16 2 29 -26 10 -20 27 -46 38 -58z"/>
<path d="M1913 795 c0 -8 4 -12 9 -9 4 3 8 9 8 15 0 5 -4 9 -8 9 -5 0 -9 -7
-9 -15z"/>
<path d="M1850 782 c0 -5 7 -9 15 -9 8 0 12 4 9 9 -3 4 -9 8 -15 8 -5 0 -9 -4
-9 -8z"/>
<path d="M1814 758 c-5 -7 -2 -8 6 -3 10 6 12 4 6 -10 -5 -15 -4 -16 9 -5 19
15 19 16 0 23 -8 4 -17 1 -21 -5z"/>
<path d="M3024 758 c-4 -7 -4 -10 1 -6 4 4 14 0 22 -10 13 -15 13 -15 3 6 -12
25 -16 27 -26 10z"/>
<path d="M1876 734 c-11 -8 -16 -14 -10 -14 13 0 39 18 34 24 -3 2 -14 -2 -24
-10z"/>
<path d="M1785 699 c-4 -6 -4 -13 -1 -16 3 -4 6 -1 6 6 0 8 6 11 16 7 8 -3 12
-2 9 4 -8 13 -22 13 -30 -1z"/>
<path d="M3034 695 c1 -8 6 -18 11 -22 4 -5 5 -2 0 6 -6 11 -4 13 8 8 23 -9
21 0 -2 13 -15 7 -19 7 -17 -5z"/>
<path d="M3070 706 c0 -2 7 -7 16 -10 8 -3 12 -2 9 4 -6 10 -25 14 -25 6z"/>
<path d="M1830 681 c0 -6 4 -13 10 -16 6 -3 7 1 4 9 -7 18 -14 21 -14 7z"/>
<path d="M1787 653 c5 -12 3 -14 -7 -8 -8 5 -11 4 -6 -3 4 -6 13 -9 22 -5 11
4 12 9 3 19 -15 19 -20 18 -12 -3z"/>
<path d="M3010 666 c0 -2 7 -7 16 -10 8 -3 12 -2 9 4 -6 10 -25 14 -25 6z"/>
<path d="M3067 651 c-4 -17 -3 -21 5 -13 5 5 8 16 6 23 -3 8 -7 3 -11 -10z"/>
<path d="M3111 665 c4 -3 19 -8 35 -11 16 -3 26 -2 23 1 -4 3 -19 8 -35 11
-16 3 -26 2 -23 -1z"/>
<path d="M1695 640 c-3 -5 -1 -10 4 -10 6 0 11 5 11 10 0 6 -2 10 -4 10 -3 0
-8 -4 -11 -10z"/>
<path d="M1870 646 c0 -2 7 -7 16 -10 8 -3 12 -2 9 4 -6 10 -25 14 -25 6z"/>
<path d="M1716 613 c-6 -14 -5 -15 5 -6 7 7 10 15 7 18 -3 3 -9 -2 -12 -12z"/>
<path d="M1767 619 c7 -7 15 -10 18 -7 3 3 -2 9 -12 12 -14 6 -15 5 -6 -5z"/>
<path d="M1830 619 c0 -5 5 -7 10 -4 6 3 10 8 10 11 0 2 -4 4 -10 4 -5 0 -10
-5 -10 -11z"/>
<path d="M3079 613 c-12 -16 -12 -17 2 -6 9 7 19 10 22 6 4 -3 7 -1 7 5 0 17
-16 15 -31 -5z"/>
<path d="M1875 611 c-3 -5 0 -13 6 -17 8 -5 9 -3 4 6 -6 10 -4 12 9 7 10 -4
15 -3 11 3 -8 13 -22 13 -30 1z"/>
<path d="M3117 607 c-3 -8 1 -14 8 -14 7 0 11 6 8 14 -3 7 -6 13 -8 13 -2 0
-5 -6 -8 -13z"/>
<path d="M1803 602 c-7 -4 -9 -13 -4 -21 6 -9 10 -7 14 8 3 12 4 21 4 21 -1 0
-7 -4 -14 -8z"/>
<path d="M3038 603 c7 -3 16 -2 19 1 4 3 -2 6 -13 5 -11 0 -14 -3 -6 -6z"/>
<path d="M1745 585 c11 -9 19 -19 18 -23 -1 -4 0 -9 2 -10 2 -2 2 4 1 13 -1
10 -11 22 -22 27 -18 9 -17 8 1 -7z"/>
<path d="M3166 591 c-17 -6 -17 -8 -4 -14 10 -3 19 0 22 9 3 8 4 14 3 13 -1 0
-11 -4 -21 -8z"/>
<path d="M1850 580 c0 -5 5 -10 10 -10 6 0 10 5 10 10 0 6 -4 10 -10 10 -5 0
-10 -4 -10 -10z"/>
<path d="M1910 581 c0 -6 4 -13 10 -16 6 -3 7 1 4 9 -7 18 -14 21 -14 7z"/>
<path d="M3059 581 c8 -5 16 -17 17 -26 1 -9 5 -20 8 -23 9 -8 2 30 -7 46 -5
6 -14 12 -20 12 -8 0 -7 -4 2 -9z"/>
<path d="M3100 576 c0 -2 7 -7 16 -10 8 -3 12 -2 9 4 -6 10 -25 14 -25 6z"/>
<path d="M3193 555 c0 -8 4 -12 9 -9 5 3 6 10 3 15 -9 13 -12 11 -12 -6z"/>
<path d="M1715 548 c25 -15 47 -19 39 -7 -3 5 -9 7 -14 4 -5 -3 -11 -1 -15 5
-3 5 -12 10 -18 10 -7 0 -3 -6 8 -12z"/>
<path d="M1812 552 c2 -8 7 -13 12 -12 5 1 13 -4 18 -12 8 -11 9 -11 6 0 -2 8
-7 13 -12 12 -5 -1 -13 4 -18 12 -8 11 -9 11 -6 0z"/>
<path d="M1901 544 c0 -11 3 -14 6 -6 3 7 2 16 -1 19 -3 4 -6 -2 -5 -13z"/>
<path d="M1780 546 c0 -2 8 -10 18 -17 15 -13 16 -12 3 4 -13 16 -21 21 -21
13z"/>
<path d="M3045 540 c-3 -5 -1 -10 5 -10 6 0 8 -5 4 -12 -4 -7 -3 -8 4 -4 6 4
9 13 5 21 -6 18 -10 19 -18 5z"/>
<path d="M3147 531 c-4 -17 -3 -21 5 -13 5 5 8 16 6 23 -3 8 -7 3 -11 -10z"/>
<path d="M1935 530 c-3 -6 1 -7 9 -4 18 7 21 14 7 14 -6 0 -13 -4 -16 -10z"/>
<path d="M1694 518 c-5 -7 -2 -8 6 -3 10 6 12 4 6 -10 -5 -15 -4 -16 9 -5 19
15 19 16 0 23 -8 4 -17 1 -21 -5z"/>
<path d="M1774 522 c3 -5 0 -13 -6 -15 -9 -4 -10 -6 -1 -6 17 -1 25 16 12 25
-7 4 -9 3 -5 -4z"/>
<path d="M2546 518 c3 -5 10 -6 15 -3 13 9 11 12 -6 12 -8 0 -12 -4 -9 -9z"/>
<path d="M3015 519 c-6 -8 -4 -10 5 -4 10 6 12 4 6 -11 -6 -15 -5 -17 5 -6 9
9 10 15 2 23 -8 8 -13 7 -18 -2z"/>
<path d="M3190 520 c0 -5 5 -10 10 -10 6 0 10 5 10 10 0 6 -4 10 -10 10 -5 0
-10 -4 -10 -10z"/>
<path d="M1950 516 c0 -2 8 -10 18 -17 15 -13 16 -12 3 4 -13 16 -21 21 -21
13z"/>
<path d="M3098 508 c5 -5 16 -8 23 -6 8 3 3 7 -10 11 -17 4 -21 3 -13 -5z"/>
<path d="M1807 499 c7 -7 15 -10 18 -7 3 3 -2 9 -12 12 -14 6 -15 5 -6 -5z"/>
<path d="M2565 499 c-4 -6 -5 -12 -2 -15 2 -3 7 2 10 11 7 17 1 20 -8 4z"/>
<path d="M1750 479 c0 -5 5 -7 10 -4 6 3 10 8 10 11 0 2 -4 4 -10 4 -5 0 -10
-5 -10 -11z"/>
<path d="M1867 469 c4 -13 8 -18 11 -10 2 7 -1 18 -6 23 -8 8 -9 4 -5 -13z"/>
<path d="M3117 473 c3 -7 6 -13 8 -13 2 0 5 6 8 13 3 8 -1 14 -8 14 -7 0 -11
-6 -8 -14z"/>
<path d="M1697 460 c-3 -11 0 -23 5 -27 7 -4 8 -1 3 7 -6 10 -4 12 10 6 16 -6
16 -4 4 11 -7 10 -14 19 -15 21 -1 1 -4 -6 -7 -18z"/>
<path d="M1794 469 c-3 -6 -1 -16 6 -22 10 -9 11 -9 5 2 -4 8 -2 17 6 22 9 6
10 9 2 9 -6 0 -15 -5 -19 -11z"/>
<path d="M1931 473 c-1 -7 8 -17 19 -23 16 -9 18 -8 14 5 -3 8 -10 13 -14 10
-5 -3 -11 1 -13 7 -4 10 -6 10 -6 1z"/>
<path d="M2597 473 c-10 -9 -9 -23 1 -23 5 0 9 7 9 15 0 17 -1 18 -10 8z"/>
<path d="M3000 460 c8 -5 20 -10 25 -10 6 0 3 5 -5 10 -8 5 -19 10 -25 10 -5
0 -3 -5 5 -10z"/>
<path d="M3080 460 c-8 -5 -10 -10 -5 -10 6 0 17 5 25 10 8 5 11 10 5 10 -5 0
-17 -5 -25 -10z"/>
<path d="M3181 454 c0 -11 3 -14 6 -6 3 7 2 16 -1 19 -3 4 -6 -2 -5 -13z"/>
<path d="M1761 436 c-9 -10 -8 -15 3 -19 11 -4 13 -1 9 10 -5 12 -3 14 7 8 9
-5 11 -4 6 3 -9 15 -11 15 -25 -2z"/>
<path d="M1910 441 c0 -5 8 -15 18 -22 15 -12 16 -12 5 2 -7 9 -10 19 -6 22 3
4 1 7 -5 7 -7 0 -12 -4 -12 -9z"/>
<path d="M2555 440 c-3 -5 -3 -10 2 -10 4 0 1 -5 -7 -11 -10 -7 -11 -9 -2 -7
8 2 13 7 12 12 -1 5 4 13 12 17 9 6 9 9 1 9 -6 0 -15 -4 -18 -10z"/>
<path d="M2627 433 c5 -12 3 -14 -7 -8 -9 5 -11 4 -6 -4 6 -9 11 -9 22 0 17
14 17 16 0 22 -11 4 -13 1 -9 -10z"/>
<path d="M2876 442 c-3 -5 1 -9 9 -9 8 0 12 4 9 9 -3 4 -7 8 -9 8 -2 0 -6 -4
-9 -8z"/>
<path d="M3042 441 c-10 -6 -10 -10 2 -20 11 -9 16 -9 22 0 5 8 3 9 -6 4 -10
-6 -12 -4 -7 8 7 19 7 20 -11 8z"/>
<path d="M3108 443 c7 -3 16 -2 19 1 4 3 -2 6 -13 5 -11 0 -14 -3 -6 -6z"/>
<path d="M2830 429 c0 -5 5 -7 10 -4 6 3 10 8 10 11 0 2 -4 4 -10 4 -5 0 -10
-5 -10 -11z"/>
<path d="M3155 429 c-4 -6 -5 -12 -2 -15 2 -3 7 2 10 11 7 17 1 20 -8 4z"/>
<path d="M1957 411 c-10 -14 -10 -14 4 -4 9 7 18 10 21 7 3 -3 8 -1 12 4 9 16
-24 9 -37 -7z"/>
<path d="M2495 420 c3 -5 8 -10 11 -10 2 0 4 5 4 10 0 6 -5 10 -11 10 -5 0 -7
-4 -4 -10z"/>
<path d="M2680 415 c-11 -13 -10 -14 5 -9 14 6 16 4 10 -6 -5 -8 -4 -11 3 -6
6 4 9 13 5 21 -7 19 -8 19 -23 0z"/>
<path d="M2737 415 c-4 -8 -1 -17 5 -21 7 -5 8 -2 3 6 -6 10 -4 12 10 6 15 -5
16 -4 5 9 -15 19 -16 19 -23 0z"/>
<path d="M2977 415 c-4 -8 -1 -17 5 -21 7 -5 8 -2 3 6 -6 10 -4 12 10 6 15 -5
16 -4 5 9 -15 19 -16 19 -23 0z"/>
<path d="M2856 411 c-4 -5 3 -7 14 -4 23 6 26 13 6 13 -8 0 -17 -4 -20 -9z"/>
<path d="M1700 400 c-8 -5 -10 -10 -5 -10 6 0 17 5 25 10 8 5 11 10 5 10 -5 0
-17 -5 -25 -10z"/>
<path d="M1793 403 c4 -3 1 -13 -6 -22 -11 -14 -10 -14 6 -2 20 15 22 31 5 31
-6 0 -8 -3 -5 -7z"/>
<path d="M1844 395 c-4 -8 -11 -12 -17 -8 -5 3 -7 1 -4 -5 8 -12 32 -10 44 3
5 4 2 5 -6 0 -11 -6 -13 -4 -8 8 3 10 4 17 1 17 -2 0 -7 -7 -10 -15z"/>
<path d="M1996 402 c-2 -4 -1 -14 3 -20 6 -10 11 -9 21 3 11 13 10 14 -5 9
-13 -5 -16 -4 -11 4 4 7 5 12 2 12 -3 0 -7 -4 -10 -8z"/>
<path d="M2590 400 c0 -5 5 -10 10 -10 6 0 10 5 10 10 0 6 -4 10 -10 10 -5 0
-10 -4 -10 -10z"/>
<path d="M2830 401 c0 -6 4 -13 10 -16 6 -3 7 1 4 9 -7 18 -14 21 -14 7z"/>
<path d="M2950 401 c0 -6 4 -13 10 -16 6 -3 7 1 4 9 -7 18 -14 21 -14 7z"/>
<path d="M3070 400 c0 -5 5 -10 10 -10 6 0 10 5 10 10 0 6 -4 10 -10 10 -5 0
-10 -4 -10 -10z"/>
<path d="M3165 400 c-3 -6 1 -7 9 -4 18 7 21 14 7 14 -6 0 -13 -4 -16 -10z"/>
<path d="M1930 391 c0 -7 -4 -10 -8 -7 -5 3 -9 -1 -9 -9 0 -8 4 -15 8 -15 9 0
21 31 14 38 -3 3 -5 0 -5 -7z"/>
<path d="M2051 384 c0 -11 3 -14 6 -6 3 7 2 16 -1 19 -3 4 -6 -2 -5 -13z"/>
<path d="M2456 392 c-2 -4 -1 -14 4 -22 7 -11 9 -9 7 8 -1 24 -3 26 -11 14z"/>
<path d="M2635 380 c-3 -5 -1 -10 4 -10 6 0 11 5 11 10 0 6 -2 10 -4 10 -3 0
-8 -4 -11 -10z"/>
<path d="M2707 368 c-5 -21 -5 -21 7 -6 7 10 17 14 21 10 5 -4 5 -1 1 6 -11
19 -23 14 -29 -10z"/>
<path d="M2762 378 c-15 -15 -15 -28 0 -28 6 0 8 3 5 7 -4 3 -2 12 4 20 14 16
7 17 -9 1z"/>
<path d="M2894 374 c1 -8 6 -17 11 -21 4 -5 5 -2 0 6 -6 11 -4 13 8 8 10 -4
14 -2 11 7 -6 17 -32 16 -30 0z"/>
<path d="M3011 374 c0 -11 3 -14 6 -6 3 7 2 16 -1 19 -3 4 -6 -2 -5 -13z"/>
<path d="M3075 371 c-3 -5 0 -13 6 -17 8 -5 9 -3 4 6 -6 10 -4 12 9 7 10 -4
15 -3 11 3 -8 13 -22 13 -30 1z"/>
<path d="M1715 360 c3 -5 8 -10 11 -10 2 0 4 5 4 10 0 6 -5 10 -11 10 -5 0 -7
-4 -4 -10z"/>
<path d="M1796 361 c-3 -5 0 -14 8 -20 10 -9 15 -8 19 3 4 11 1 13 -10 9 -11
-4 -14 -2 -9 5 4 7 5 12 2 12 -3 0 -7 -4 -10 -9z"/>
<path d="M1870 361 c0 -6 4 -13 10 -16 6 -3 7 1 4 9 -7 18 -14 21 -14 7z"/>
<path d="M2070 360 c-9 -6 -10 -10 -3 -10 6 0 15 5 18 10 8 12 4 12 -15 0z"/>
<path d="M2956 355 c-3 -9 -10 -13 -16 -10 -5 3 -10 1 -10 -4 0 -6 4 -11 9
-11 12 0 35 29 29 36 -3 3 -8 -2 -12 -11z"/>
<path d="M1845 343 c-11 -25 -15 -46 -7 -38 4 4 7 10 7 13 0 4 4 13 9 20 4 7
6 15 3 18 -2 3 -8 -3 -12 -13z"/>
<path d="M1980 354 c0 -6 3 -14 7 -18 13 -12 12 -38 -1 -33 -7 3 -13 -1 -13
-8 0 -10 5 -11 17 -5 10 5 21 6 25 2 5 -4 4 0 -1 8 -5 8 -9 17 -9 20 -1 12
-24 44 -25 34z"/>
<path d="M2030 350 c-8 -5 -12 -12 -9 -15 4 -3 12 1 19 10 14 17 11 19 -10 5z"/>
<path d="M2558 353 c7 -3 16 -2 19 1 4 3 -2 6 -13 5 -11 0 -14 -3 -6 -6z"/>
<path d="M2606 351 c-17 -6 -17 -8 -4 -14 10 -3 19 0 22 9 3 8 4 14 3 13 -1 0
-11 -4 -21 -8z"/>
<path d="M2870 356 c0 -2 8 -10 18 -17 15 -13 16 -12 3 4 -13 16 -21 21 -21
13z"/>
<path d="M3131 344 c0 -11 3 -14 6 -6 3 7 2 16 -1 19 -3 4 -6 -2 -5 -13z"/>
<path d="M1910 336 c7 -7 13 -7 20 0 6 6 3 10 -10 10 -13 0 -16 -4 -10 -10z"/>
<path d="M2077 336 c-17 -13 -16 -14 2 -19 15 -3 18 -1 14 11 -5 11 -3 13 7 7
9 -5 11 -4 6 3 -9 14 -7 14 -29 -2z"/>
<path d="M2497 336 c-4 -11 -1 -13 10 -9 12 5 14 3 8 -7 -5 -9 -4 -11 4 -6 9
6 9 11 0 22 -14 17 -16 17 -22 0z"/>
<path d="M2786 335 c6 -14 4 -16 -6 -10 -8 5 -11 4 -7 -3 4 -5 16 -8 27 -5 12
3 19 6 18 7 -2 1 -11 8 -21 15 -15 12 -17 12 -11 -4z"/>
<path d="M2840 335 c-11 -13 -10 -14 5 -9 14 6 16 4 10 -6 -5 -8 -4 -11 3 -6
6 4 9 13 5 21 -7 19 -8 19 -23 0z"/>
<path d="M3000 335 c-7 -9 -8 -15 -2 -15 5 0 12 7 16 15 3 8 4 15 2 15 -2 0
-9 -7 -16 -15z"/>
<path d="M1750 330 c0 -5 5 -10 11 -10 5 0 7 5 4 10 -3 6 -8 10 -11 10 -2 0
-4 -4 -4 -10z"/>
<path d="M1884 315 c-4 -8 -11 -12 -18 -8 -6 3 -7 2 -3 -2 14 -16 36 -14 30 3
-5 11 -3 13 7 7 9 -5 11 -4 6 3 -10 16 -15 15 -22 -3z"/>
<path d="M1947 309 c4 -13 8 -18 11 -10 2 7 -1 18 -6 23 -8 8 -9 4 -5 -13z"/>
<path d="M2548 323 c7 -3 16 -2 19 1 4 3 -2 6 -13 5 -11 0 -14 -3 -6 -6z"/>
<path d="M2630 320 c0 -5 5 -10 10 -10 6 0 10 5 10 10 0 6 -4 10 -10 10 -5 0
-10 -4 -10 -10z"/>
<path d="M3075 320 c27 -12 43 -12 25 0 -8 5 -22 9 -30 9 -10 0 -8 -3 5 -9z"/>
<path d="M2140 316 c0 -2 7 -6 15 -10 8 -3 15 -1 15 4 0 6 -7 10 -15 10 -8 0
-15 -2 -15 -4z"/>
<path d="M2426 303 c-6 -14 -5 -15 5 -6 7 7 10 15 7 18 -3 3 -9 -2 -12 -12z"/>
<path d="M2473 305 c0 -8 4 -12 9 -9 5 3 6 10 3 15 -9 13 -12 11 -12 -6z"/>
<path d="M2890 311 c0 -7 -5 -9 -12 -5 -7 5 -8 3 -3 -5 5 -9 10 -10 18 -2 6 6
8 14 4 18 -4 3 -7 1 -7 -6z"/>
<path d="M1770 301 c0 -6 4 -13 10 -16 6 -3 7 1 4 9 -7 18 -14 21 -14 7z"/>
<path d="M2042 298 c-15 -15 -15 -28 -1 -28 5 0 8 4 4 9 -3 6 3 14 12 20 10 6
13 11 8 11 -6 0 -16 -5 -23 -12z"/>
<path d="M2451 294 c0 -11 3 -14 6 -6 3 7 2 16 -1 19 -3 4 -6 -2 -5 -13z"/>
<path d="M2590 301 c0 -6 4 -13 10 -16 6 -3 7 1 4 9 -7 18 -14 21 -14 7z"/>
<path d="M2950 290 c-8 -15 -8 -18 3 -14 8 3 14 11 14 19 0 20 -4 19 -17 -5z"/>
<path d="M2994 293 c-10 -7 -13 -13 -7 -13 7 0 15 5 18 10 4 6 10 8 15 5 5 -3
11 -2 14 3 8 13 -19 10 -40 -5z"/>
<path d="M2396 287 c3 -10 9 -15 12 -12 3 3 0 11 -7 18 -10 9 -11 8 -5 -6z"/>
<path d="M2648 293 c6 -2 9 -10 6 -15 -4 -7 -2 -8 5 -4 13 9 5 26 -12 25 -9 0
-8 -2 1 -6z"/>
<path d="M2835 291 c-3 -5 0 -13 6 -17 8 -5 9 -3 4 6 -6 10 -4 12 9 7 10 -4
15 -3 11 3 -8 13 -22 13 -30 1z"/>
<path d="M2107 269 c4 -13 8 -18 11 -10 2 7 -1 18 -6 23 -8 8 -9 4 -5 -13z"/>
<path d="M2334 278 c-5 -7 -2 -8 6 -3 10 6 12 4 6 -10 -5 -15 -4 -16 9 -5 19
15 19 16 0 23 -8 4 -17 1 -21 -5z"/>
<path d="M2510 280 c0 -5 5 -10 10 -10 6 0 10 5 10 10 0 6 -4 10 -10 10 -5 0
-10 -4 -10 -10z"/>
<path d="M2574 282 c4 -7 3 -12 -3 -12 -6 0 -15 -9 -21 -20 -9 -16 -8 -18 5
-14 9 4 13 9 11 12 -3 3 2 10 11 17 13 9 13 14 3 20 -9 5 -11 4 -6 -3z"/>
<path d="M2763 282 c-7 -4 -9 -13 -4 -21 6 -9 10 -7 14 8 3 12 4 21 4 21 -1 0
-7 -4 -14 -8z"/>
<path d="M2224 268 c3 -15 26 -23 26 -8 0 6 -4 9 -9 6 -5 -4 -12 -1 -14 4 -3
6 -4 5 -3 -2z"/>
<path d="M2705 265 c11 -9 19 -19 18 -23 -1 -4 0 -9 2 -10 2 -2 2 4 1 13 -1
10 -11 22 -22 27 -18 9 -17 8 1 -7z"/>
<path d="M2898 268 c5 -5 16 -8 23 -6 8 3 3 7 -10 11 -17 4 -21 3 -13 -5z"/>
<path d="M1845 259 c-4 -6 -5 -12 -2 -15 2 -3 7 2 10 11 7 17 1 20 -8 4z"/>
<path d="M2067 253 c5 -12 3 -14 -7 -8 -8 5 -11 4 -6 -3 4 -6 13 -9 22 -5 11
4 12 9 3 19 -15 19 -20 18 -12 -3z"/>
<path d="M2160 260 c-9 -6 -10 -10 -3 -10 6 0 15 5 18 10 8 12 4 12 -15 0z"/>
<path d="M2290 260 c0 -5 5 -10 10 -10 6 0 10 5 10 10 0 6 -4 10 -10 10 -5 0
-10 -4 -10 -10z"/>
<path d="M2441 256 c-9 -10 -8 -15 3 -19 11 -4 13 -1 9 10 -5 12 -3 14 7 8 9
-5 11 -4 6 3 -9 15 -11 15 -25 -2z"/>
<path d="M2607 259 c7 -7 15 -10 18 -7 3 3 -2 9 -12 12 -14 6 -15 5 -6 -5z"/>
<path d="M2810 260 c0 -5 5 -10 10 -10 6 0 10 5 10 10 0 6 -4 10 -10 10 -5 0
-10 -4 -10 -10z"/>
<path d="M2870 265 c0 -5 5 -17 10 -25 5 -8 10 -10 10 -5 0 6 -5 17 -10 25 -5
8 -10 11 -10 5z"/>
<path d="M2990 260 c0 -5 5 -10 11 -10 5 0 7 5 4 10 -3 6 -8 10 -11 10 -2 0
-4 -4 -4 -10z"/>
<path d="M1867 246 c-4 -10 -1 -13 8 -9 8 3 12 9 9 14 -7 12 -11 11 -17 -5z"/>
<path d="M2480 251 c0 -6 4 -13 10 -16 6 -3 7 1 4 9 -7 18 -14 21 -14 7z"/>
<path d="M2187 234 c4 -11 3 -15 -5 -10 -6 3 -13 2 -16 -3 -4 -5 2 -8 11 -7
20 3 28 21 14 31 -7 4 -8 0 -4 -11z"/>
<path d="M2275 240 c6 -10 4 -12 -11 -6 -15 6 -17 5 -6 -5 9 -9 15 -10 23 -2
8 8 7 13 -2 18 -8 6 -10 4 -4 -5z"/>
<path d="M2390 241 c0 -6 4 -13 10 -16 6 -3 7 1 4 9 -7 18 -14 21 -14 7z"/>
<path d="M2956 238 c3 -5 10 -6 15 -3 13 9 11 12 -6 12 -8 0 -12 -4 -9 -9z"/>
<path d="M1997 233 c-10 -10 -8 -23 4 -23 5 0 8 4 5 9 -4 5 0 12 6 14 7 3 8 6
2 6 -6 1 -14 -2 -17 -6z"/>
<path d="M2084 224 c-18 -14 -18 -15 4 -4 12 6 22 13 22 15 0 8 -5 6 -26 -11z"/>
<path d="M2340 229 c0 -5 -4 -8 -9 -4 -6 3 -15 -5 -21 -17 -10 -21 -10 -22 4
-5 8 10 18 18 22 17 5 -1 10 3 12 9 2 6 1 11 -2 11 -3 0 -6 -5 -6 -11z"/>
<path d="M2599 238 c-6 -21 -5 -37 2 -32 5 3 7 9 4 14 -3 4 1 11 7 13 10 4 10
6 1 6 -7 1 -13 0 -14 -1z"/>
<path d="M2771 233 c-1 -7 8 -17 19 -23 16 -9 18 -8 14 5 -3 8 -10 13 -14 10
-5 -3 -11 1 -13 7 -4 10 -6 10 -6 1z"/>
<path d="M2861 224 c0 -11 3 -14 6 -6 3 7 2 16 -1 19 -3 4 -6 -2 -5 -13z"/>
<path d="M1890 219 c0 -8 47 -5 55 3 3 3 -8 5 -25 5 -16 0 -30 -4 -30 -8z"/>
<path d="M2122 218 c-15 -15 -15 -28 0 -28 6 0 8 3 5 7 -4 3 -2 12 4 20 14 16
7 17 -9 1z"/>
<path d="M2362 218 c-15 -15 -15 -28 0 -28 6 0 8 3 5 7 -4 3 -2 12 4 20 14 16
7 17 -9 1z"/>
<path d="M2460 220 c-9 -6 -10 -10 -3 -10 6 0 15 5 18 10 8 12 4 12 -15 0z"/>
<path d="M2500 220 c-8 -5 -10 -10 -5 -10 6 0 17 5 25 10 8 5 11 10 5 10 -5 0
-17 -5 -25 -10z"/>
<path d="M2690 226 c0 -2 7 -7 16 -10 8 -3 12 -2 9 4 -6 10 -25 14 -25 6z"/>
<path d="M2740 226 c0 -2 8 -10 18 -17 15 -13 16 -12 3 4 -13 16 -21 21 -21
13z"/>
<path d="M2906 217 c-16 -12 -16 -13 2 -13 10 0 19 6 19 13 0 7 -1 13 -2 13
-1 0 -9 -6 -19 -13z"/>
<path d="M2557 209 c7 -7 15 -10 18 -7 3 3 -2 9 -12 12 -14 6 -15 5 -6 -5z"/>
<path d="M1947 195 c3 -8 9 -12 14 -9 12 7 11 11 -5 17 -10 4 -13 1 -9 -8z"/>
<path d="M2042 201 c-10 -6 -10 -10 3 -21 13 -11 14 -10 9 5 -6 14 -4 16 6 10
9 -5 11 -4 6 3 -8 14 -7 14 -24 3z"/>
<path d="M2683 202 c-7 -4 -9 -13 -4 -21 6 -9 10 -7 14 8 3 12 4 21 4 21 -1 0
-7 -4 -14 -8z"/>
<path d="M2734 202 c3 -5 0 -13 -6 -15 -9 -4 -10 -6 -1 -6 17 -1 25 16 12 25
-7 4 -9 3 -5 -4z"/>
<path d="M2836 195 c-3 -9 -10 -14 -15 -10 -5 3 -12 1 -15 -4 -8 -13 22 -7 36
7 6 6 9 14 6 17 -3 3 -8 -1 -12 -10z"/>
<path d="M2190 196 c0 -2 7 -9 15 -16 9 -7 15 -8 15 -2 0 5 -7 12 -15 16 -8 3
-15 4 -15 2z"/>
<path d="M2861 184 c0 -11 3 -14 6 -6 3 7 2 16 -1 19 -3 4 -6 -2 -5 -13z"/>
<path d="M2134 179 c-5 -8 -3 -9 6 -4 10 6 12 4 7 -7 -4 -12 -1 -14 14 -11 11
3 18 6 17 7 -2 1 -10 7 -20 14 -12 10 -18 10 -24 1z"/>
<path d="M2386 177 c3 -10 9 -15 12 -12 3 3 0 11 -7 18 -10 9 -11 8 -5 -6z"/>
<path d="M2570 186 c0 -2 7 -7 16 -10 8 -3 12 -2 9 4 -6 10 -25 14 -25 6z"/>
<path d="M2767 179 c7 -7 15 -10 18 -7 3 3 -2 9 -12 12 -14 6 -15 5 -6 -5z"/>
<path d="M2002 164 c10 -10 20 -16 22 -13 3 3 -5 11 -17 18 -21 13 -21 12 -5
-5z"/>
<path d="M2079 178 c-6 -22 -5 -39 3 -45 6 -3 8 -1 4 5 -3 5 0 13 6 15 10 4
10 6 0 6 -7 1 -10 6 -7 11 3 6 4 10 1 10 -3 0 -6 -1 -7 -2z"/>
<path d="M2456 171 c-4 -5 3 -7 14 -4 23 6 26 13 6 13 -8 0 -17 -4 -20 -9z"/>
<path d="M2615 171 c-3 -5 0 -13 6 -17 7 -4 9 -3 5 4 -3 6 2 13 11 15 16 4 16
5 1 6 -9 0 -19 -3 -23 -8z"/>
<path d="M2233 155 c0 -8 4 -12 9 -9 4 3 8 9 8 15 0 5 -4 9 -8 9 -5 0 -9 -7
-9 -15z"/>
<path d="M2414 162 c3 -5 0 -13 -6 -15 -9 -4 -10 -6 -1 -6 17 -1 25 16 12 25
-7 4 -9 3 -5 -4z"/>
<path d="M2354 146 c1 -8 5 -18 8 -22 4 -3 5 1 4 10 -1 8 -5 18 -8 22 -4 3 -5
-1 -4 -10z"/>
<path d="M2542 147 c14 -11 15 -16 5 -26 -9 -10 -8 -11 5 -6 9 4 19 14 23 23
3 9 3 13 -1 10 -4 -4 -16 -3 -28 3 -19 9 -19 9 -4 -4z"/>
<path d="M2691 144 c0 -11 3 -14 6 -6 3 7 2 16 -1 19 -3 4 -6 -2 -5 -13z"/>
<path d="M2280 136 c0 -8 4 -17 9 -20 5 -4 7 3 4 14 -6 23 -13 26 -13 6z"/>
<path d="M2195 131 c-3 -5 0 -13 6 -17 8 -5 9 -3 4 6 -6 10 -4 12 9 7 10 -4
15 -3 11 3 -8 13 -22 13 -30 1z"/>
<path d="M2236 113 c-6 -14 -5 -15 5 -6 7 7 10 15 7 18 -3 3 -9 -2 -12 -12z"/>
<path d="M2320 115 c-9 -10 -9 -15 -1 -15 6 0 11 5 11 11 0 5 5 7 12 3 7 -4 8
-3 4 4 -9 15 -11 15 -26 -3z"/>
<path d="M2388 123 c7 -3 16 -2 19 1 4 3 -2 6 -13 5 -11 0 -14 -3 -6 -6z"/>
<path d="M2436 113 c-6 -14 -5 -15 5 -6 7 7 10 15 7 18 -3 3 -9 -2 -12 -12z"/>
</g>
</svg>
